# MagicaVoxel @ Ephtracy

# material
mtllib Locker.mtl
usemtl palette

# normals
vn -1 0 0
vn 1 0 0
vn 0 0 1
vn 0 0 -1
vn 0 -1 0
vn 0 1 0

# texcoords
vt 0.373047 0.5
vt 0.810547 0.5
vt 0.955078 0.5
vt 0.962891 0.5
vt 0.966797 0.5
vt 0.978516 0.5
vt 0.982422 0.5

# verts
v -16 0 17
v -16 0 -17
v -16 80 17
v -16 80 -17
v -14 13 6
v -14 13 5
v -14 13 -4
v -14 13 -5
v -14 14 6
v -14 14 5
v -14 14 -4
v -14 14 -5
v -14 16 5
v -14 16 -4
v -14 17 6
v -14 17 1
v -14 17 -0
v -14 17 -5
v -14 24 1
v -14 24 -0
v -14 26 3
v -14 26 1
v -14 26 -0
v -14 26 -2
v -14 27 2
v -14 27 -1
v -14 28 2
v -14 28 -1
v -14 29 3
v -14 29 -2
v 2 9 5
v 2 9 3
v 2 12 4
v 2 12 3
v 2 15 5
v 2 15 4
v 2 15 3
v 2 17 5
v 2 17 3
v 6 17 5
v 6 17 3
v 6 59 5
v 6 59 3
v 6 63 5
v 6 63 3
v 7 63 5
v 7 63 4
v 7 65 6
v 7 65 5
v 7 66 5
v 7 66 4
v 7 67 3
v 7 67 2
v 7 68 5
v 7 68 3
v 7 69 6
v 7 69 2
v 15 1 17
v 15 1 -16
v 15 66 5
v 15 66 3
v 15 68 5
v 15 68 3
v 15 79 17
v 15 79 -16
v -15 1 17
v -15 1 5
v -15 1 -4
v -15 1 -16
v -15 16 5
v -15 16 -4
v -15 58 12
v -15 58 11
v -15 58 6
v -15 58 5
v -15 58 -0
v -15 58 -1
v -15 61 12
v -15 61 11
v -15 61 6
v -15 61 5
v -15 61 -0
v -15 61 -1
v -15 66 5
v -15 66 3
v -15 68 5
v -15 68 3
v -15 79 17
v -15 79 -16
v -14 59 12
v -14 59 11
v -14 59 6
v -14 59 5
v -14 59 -0
v -14 59 -1
v -14 61 12
v -14 61 11
v -14 61 6
v -14 61 5
v -14 61 -0
v -14 61 -1
v -13 13 6
v -13 13 5
v -13 13 -4
v -13 13 -5
v -13 14 6
v -13 14 5
v -13 14 -4
v -13 14 -5
v -13 16 5
v -13 16 -4
v -13 17 6
v -13 17 1
v -13 17 -0
v -13 17 -5
v -13 24 1
v -13 24 -0
v -13 26 3
v -13 26 1
v -13 26 -0
v -13 26 -2
v -13 27 2
v -13 27 -1
v -13 28 2
v -13 28 -1
v -13 29 3
v -13 29 -2
v -12 14 5
v -12 14 -4
v -12 16 5
v -12 16 -4
v -11 13 5
v -11 13 -4
v -11 14 5
v -11 14 -4
v -11 58 12
v -11 58 11
v -11 58 6
v -11 58 5
v -11 58 -0
v -11 58 -1
v -11 59 12
v -11 59 11
v -11 59 6
v -11 59 5
v -11 59 -0
v -11 59 -1
v -10 12 5
v -10 12 -4
v -10 13 5
v -10 13 -4
v -9 8 5
v -9 8 -4
v -9 12 5
v -9 12 -4
v -8 1 5
v -8 1 -4
v -8 8 5
v -8 8 -4
v 8 17 5
v 8 17 3
v 8 59 5
v 8 59 3
v 8 63 5
v 8 63 4
v 8 63 3
v 8 65 6
v 8 65 5
v 8 66 5
v 8 66 4
v 8 67 3
v 8 67 2
v 8 68 5
v 8 68 3
v 8 69 6
v 8 69 2
v 12 9 5
v 12 9 4
v 12 9 3
v 12 14 5
v 12 14 4
v 12 15 5
v 12 15 3
v 12 17 5
v 12 17 3
v 16 0 17
v 16 0 -17
v 16 80 17
v 16 80 -17
v -16 0 17
v -16 80 17
v -15 1 17
v -15 79 17
v 15 1 17
v 15 79 17
v 16 0 17
v 16 80 17
v -15 58 12
v -15 61 12
v -14 59 12
v -14 61 12
v -11 58 12
v -11 59 12
v -15 58 6
v -15 61 6
v -14 13 6
v -14 14 6
v -14 17 6
v -14 59 6
v -14 61 6
v -13 13 6
v -13 14 6
v -13 17 6
v -11 58 6
v -11 59 6
v 7 65 6
v 7 69 6
v 8 65 6
v 8 69 6
v -15 1 5
v -15 16 5
v -15 66 5
v -15 68 5
v -14 13 5
v -14 14 5
v -14 16 5
v -13 13 5
v -13 14 5
v -13 16 5
v -12 14 5
v -12 16 5
v -11 13 5
v -11 14 5
v -10 12 5
v -10 13 5
v -9 8 5
v -9 12 5
v -8 1 5
v -8 8 5
v 2 9 5
v 2 15 5
v 2 17 5
v 3 10 5
v 3 15 5
v 4 10 5
v 4 15 5
v 5 9 5
v 5 14 5
v 6 9 5
v 6 14 5
v 6 17 5
v 6 59 5
v 6 63 5
v 7 9 5
v 7 14 5
v 7 63 5
v 7 65 5
v 7 66 5
v 7 68 5
v 8 9 5
v 8 14 5
v 8 17 5
v 8 59 5
v 8 63 5
v 8 65 5
v 8 66 5
v 8 68 5
v 9 9 5
v 9 15 5
v 10 9 5
v 10 15 5
v 11 9 5
v 11 14 5
v 12 9 5
v 12 14 5
v 12 15 5
v 12 17 5
v 15 66 5
v 15 68 5
v -14 26 3
v -14 29 3
v -13 26 3
v -13 29 3
v -14 17 1
v -14 24 1
v -14 26 1
v -13 17 1
v -13 24 1
v -13 26 1
v -15 58 -0
v -15 61 -0
v -14 59 -0
v -14 61 -0
v -11 58 -0
v -11 59 -0
v -14 27 -1
v -14 28 -1
v -13 27 -1
v -13 28 -1
v -15 1 -16
v -15 79 -16
v 15 1 -16
v 15 79 -16
v -15 58 11
v -15 61 11
v -14 59 11
v -14 61 11
v -11 58 11
v -11 59 11
v -15 58 5
v -15 61 5
v -14 59 5
v -14 61 5
v -11 58 5
v -11 59 5
v 7 63 4
v 7 66 4
v 8 63 4
v 8 66 4
v -15 66 3
v -15 68 3
v 2 9 3
v 2 12 3
v 2 15 3
v 2 17 3
v 3 12 3
v 3 15 3
v 4 9 3
v 4 13 3
v 5 9 3
v 5 13 3
v 6 9 3
v 6 15 3
v 6 17 3
v 6 59 3
v 6 63 3
v 7 9 3
v 7 15 3
v 7 67 3
v 7 68 3
v 8 11 3
v 8 15 3
v 8 17 3
v 8 59 3
v 8 63 3
v 8 67 3
v 8 68 3
v 9 11 3
v 9 15 3
v 10 9 3
v 10 13 3
v 11 9 3
v 11 13 3
v 12 9 3
v 12 15 3
v 12 17 3
v 15 66 3
v 15 68 3
v -14 27 2
v -14 28 2
v -13 27 2
v -13 28 2
v 7 67 2
v 7 69 2
v 8 67 2
v 8 69 2
v -14 17 -0
v -14 24 -0
v -14 26 -0
v -13 17 -0
v -13 24 -0
v -13 26 -0
v -15 58 -1
v -15 61 -1
v -14 59 -1
v -14 61 -1
v -11 58 -1
v -11 59 -1
v -14 26 -2
v -14 29 -2
v -13 26 -2
v -13 29 -2
v -15 1 -4
v -15 16 -4
v -14 13 -4
v -14 14 -4
v -14 16 -4
v -13 13 -4
v -13 14 -4
v -13 16 -4
v -12 14 -4
v -12 16 -4
v -11 13 -4
v -11 14 -4
v -10 12 -4
v -10 13 -4
v -9 8 -4
v -9 12 -4
v -8 1 -4
v -8 8 -4
v -14 13 -5
v -14 14 -5
v -14 17 -5
v -13 13 -5
v -13 14 -5
v -13 17 -5
v -16 0 -17
v -16 80 -17
v 16 0 -17
v 16 80 -17
v -16 0 17
v 16 0 17
v -16 0 -17
v 16 0 -17
v 2 9 5
v 5 9 5
v 6 9 5
v 7 9 5
v 8 9 5
v 9 9 5
v 10 9 5
v 11 9 5
v 12 9 5
v 4 9 4
v 5 9 4
v 6 9 4
v 7 9 4
v 8 9 4
v 9 9 4
v 10 9 4
v 11 9 4
v 12 9 4
v 2 9 3
v 4 9 3
v 5 9 3
v 6 9 3
v 7 9 3
v 10 9 3
v 11 9 3
v 12 9 3
v -14 13 6
v -13 13 6
v -14 13 5
v -13 13 5
v -14 13 -4
v -13 13 -4
v -14 13 -5
v -13 13 -5
v -14 26 3
v -13 26 3
v -14 26 1
v -13 26 1
v -14 26 -0
v -13 26 -0
v -14 26 -2
v -13 26 -2
v -14 28 2
v -13 28 2
v -14 28 -1
v -13 28 -1
v -15 58 12
v -11 58 12
v -15 58 11
v -11 58 11
v -15 58 6
v -11 58 6
v -15 58 5
v -11 58 5
v -15 58 -0
v -11 58 -0
v -15 58 -1
v -11 58 -1
v 7 65 6
v 8 65 6
v 7 65 5
v 8 65 5
v -15 66 5
v 7 66 5
v 8 66 5
v 15 66 5
v 7 66 4
v 8 66 4
v -15 66 3
v 15 66 3
v 7 67 3
v 8 67 3
v 7 67 2
v 8 67 2
v -15 79 17
v 15 79 17
v -15 79 -16
v 15 79 -16
v -15 1 17
v 15 1 17
v -15 1 5
v -8 1 5
v -15 1 -4
v -8 1 -4
v -15 1 -16
v 15 1 -16
v -9 8 5
v -8 8 5
v -9 8 -4
v -8 8 -4
v -10 12 5
v -9 12 5
v -10 12 -4
v -9 12 -4
v -11 13 5
v -10 13 5
v -11 13 -4
v -10 13 -4
v -12 14 5
v -11 14 5
v -12 14 -4
v -11 14 -4
v -15 16 5
v -14 16 5
v -13 16 5
v -12 16 5
v -15 16 -4
v -14 16 -4
v -13 16 -4
v -12 16 -4
v -14 17 6
v -13 17 6
v 2 17 5
v 6 17 5
v 8 17 5
v 12 17 5
v 2 17 3
v 6 17 3
v 8 17 3
v 12 17 3
v -14 17 1
v -13 17 1
v -14 17 -0
v -13 17 -0
v -14 17 -5
v -13 17 -5
v -14 27 2
v -13 27 2
v -14 27 -1
v -13 27 -1
v -14 29 3
v -13 29 3
v -14 29 -2
v -13 29 -2
v -14 59 12
v -11 59 12
v -14 59 11
v -11 59 11
v -14 59 6
v -11 59 6
v -14 59 5
v -11 59 5
v -14 59 -0
v -11 59 -0
v -14 59 -1
v -11 59 -1
v -15 61 12
v -14 61 12
v -15 61 11
v -14 61 11
v -15 61 6
v -14 61 6
v -15 61 5
v -14 61 5
v -15 61 -0
v -14 61 -0
v -15 61 -1
v -14 61 -1
v 6 63 5
v 7 63 5
v 7 63 4
v 8 63 4
v 6 63 3
v 8 63 3
v -15 68 5
v 7 68 5
v 8 68 5
v 15 68 5
v -15 68 3
v 7 68 3
v 8 68 3
v 15 68 3
v 7 69 6
v 8 69 6
v 7 69 2
v 8 69 2
v -16 80 17
v 16 80 17
v -16 80 -17
v 16 80 -17

# faces
f 3/5/1 2/5/1 1/5/1
f 4/5/1 2/5/1 3/5/1
f 9/7/1 6/7/1 5/7/1
f 10/7/1 6/7/1 9/7/1
f 11/7/1 8/7/1 7/7/1
f 12/7/1 8/7/1 11/7/1
f 13/5/1 10/5/1 9/5/1
f 14/5/1 12/5/1 11/5/1
f 15/5/1 13/5/1 9/5/1
f 15/5/1 14/5/1 13/5/1
f 16/5/1 14/5/1 15/5/1
f 17/5/1 14/5/1 16/5/1
f 18/5/1 12/5/1 14/5/1
f 18/5/1 14/5/1 17/5/1
f 19/5/1 17/5/1 16/5/1
f 20/5/1 17/5/1 19/5/1
f 22/7/1 20/7/1 19/7/1
f 23/7/1 20/7/1 22/7/1
f 25/7/1 23/7/1 22/7/1
f 25/7/1 24/7/1 23/7/1
f 25/7/1 22/7/1 21/7/1
f 26/7/1 24/7/1 25/7/1
f 27/7/1 25/7/1 21/7/1
f 28/7/1 24/7/1 26/7/1
f 29/7/1 27/7/1 21/7/1
f 29/7/1 28/7/1 27/7/1
f 30/7/1 24/7/1 28/7/1
f 30/7/1 28/7/1 29/7/1
f 33/4/1 32/4/1 31/4/1
f 34/4/1 32/4/1 33/4/1
f 35/4/1 33/4/1 31/4/1
f 36/5/1 34/5/1 33/5/1
f 36/4/1 33/4/1 35/4/1
f 37/5/1 34/5/1 36/5/1
f 38/7/1 36/7/1 35/7/1
f 38/7/1 37/7/1 36/7/1
f 39/7/1 37/7/1 38/7/1
f 42/1/1 41/1/1 40/1/1
f 43/1/1 41/1/1 42/1/1
f 44/6/1 43/6/1 42/6/1
f 45/6/1 43/6/1 44/6/1
f 49/3/1 47/3/1 46/3/1
f 50/3/1 47/3/1 49/3/1
f 50/3/1 49/3/1 48/3/1
f 51/3/1 47/3/1 50/3/1
f 54/3/1 50/3/1 48/3/1
f 55/3/1 53/3/1 52/3/1
f 56/3/1 54/3/1 48/3/1
f 56/3/1 55/3/1 54/3/1
f 57/3/1 53/3/1 55/3/1
f 57/3/1 55/3/1 56/3/1
f 60/5/1 59/5/1 58/5/1
f 61/5/1 59/5/1 60/5/1
f 62/5/1 60/5/1 58/5/1
f 63/5/1 59/5/1 61/5/1
f 64/5/1 62/5/1 58/5/1
f 64/5/1 63/5/1 62/5/1
f 65/5/1 59/5/1 63/5/1
f 65/5/1 63/5/1 64/5/1
f 66/5/2 67/5/2 70/5/2
f 68/5/2 69/5/2 71/5/2
f 66/5/2 70/5/2 72/5/2
f 70/5/2 71/5/2 72/5/2
f 72/5/2 71/5/2 73/5/2
f 73/5/2 71/5/2 74/5/2
f 74/5/2 71/5/2 75/5/2
f 75/5/2 71/5/2 76/5/2
f 76/5/2 71/5/2 77/5/2
f 66/5/2 72/5/2 78/5/2
f 73/5/2 74/5/2 79/5/2
f 79/5/2 74/5/2 80/5/2
f 75/5/2 76/5/2 81/5/2
f 81/5/2 76/5/2 82/5/2
f 77/5/2 71/5/2 83/5/2
f 81/5/2 82/5/2 84/5/2
f 82/5/2 83/5/2 84/5/2
f 79/5/2 80/5/2 84/5/2
f 78/5/2 79/5/2 84/5/2
f 80/5/2 81/5/2 84/5/2
f 84/5/2 83/5/2 85/5/2
f 78/5/2 84/5/2 86/5/2
f 85/5/2 83/5/2 87/5/2
f 66/5/2 78/5/2 88/5/2
f 86/5/2 87/5/2 88/5/2
f 78/5/2 86/5/2 88/5/2
f 71/5/2 69/5/2 89/5/2
f 88/5/2 87/5/2 89/5/2
f 83/5/2 71/5/2 89/5/2
f 87/5/2 83/5/2 89/5/2
f 90/5/2 91/5/2 96/5/2
f 96/5/2 91/5/2 97/5/2
f 92/5/2 93/5/2 98/5/2
f 98/5/2 93/5/2 99/5/2
f 94/5/2 95/5/2 100/5/2
f 100/5/2 95/5/2 101/5/2
f 102/7/2 103/7/2 106/7/2
f 106/7/2 103/7/2 107/7/2
f 104/7/2 105/7/2 108/7/2
f 108/7/2 105/7/2 109/7/2
f 106/5/2 107/5/2 110/5/2
f 108/5/2 109/5/2 111/5/2
f 106/5/2 110/5/2 112/5/2
f 110/5/2 111/5/2 112/5/2
f 112/5/2 111/5/2 113/5/2
f 113/5/2 111/5/2 114/5/2
f 111/5/2 109/5/2 115/5/2
f 114/5/2 111/5/2 115/5/2
f 113/5/2 114/5/2 116/5/2
f 116/5/2 114/5/2 117/5/2
f 116/7/2 117/7/2 119/7/2
f 119/7/2 117/7/2 120/7/2
f 119/7/2 120/7/2 122/7/2
f 120/7/2 121/7/2 122/7/2
f 118/7/2 119/7/2 122/7/2
f 122/7/2 121/7/2 123/7/2
f 118/7/2 122/7/2 124/7/2
f 123/7/2 121/7/2 125/7/2
f 118/7/2 124/7/2 126/7/2
f 124/7/2 125/7/2 126/7/2
f 125/7/2 121/7/2 127/7/2
f 126/7/2 125/7/2 127/7/2
f 128/2/2 129/2/2 130/2/2
f 130/2/2 129/2/2 131/2/2
f 132/2/2 133/2/2 134/2/2
f 134/2/2 133/2/2 135/2/2
f 136/5/2 137/5/2 142/5/2
f 142/5/2 137/5/2 143/5/2
f 138/5/2 139/5/2 144/5/2
f 144/5/2 139/5/2 145/5/2
f 140/5/2 141/5/2 146/5/2
f 146/5/2 141/5/2 147/5/2
f 148/2/2 149/2/2 150/2/2
f 150/2/2 149/2/2 151/2/2
f 152/2/2 153/2/2 154/2/2
f 154/2/2 153/2/2 155/2/2
f 156/2/2 157/2/2 158/2/2
f 158/2/2 157/2/2 159/2/2
f 160/1/2 161/1/2 162/1/2
f 162/1/2 161/1/2 163/1/2
f 162/6/2 163/6/2 164/6/2
f 164/6/2 163/6/2 165/6/2
f 165/6/2 163/6/2 166/6/2
f 164/3/2 165/3/2 168/3/2
f 168/3/2 165/3/2 169/3/2
f 167/3/2 168/3/2 169/3/2
f 169/3/2 165/3/2 170/3/2
f 167/3/2 169/3/2 173/3/2
f 171/3/2 172/3/2 174/3/2
f 167/3/2 173/3/2 175/3/2
f 173/3/2 174/3/2 175/3/2
f 174/3/2 172/3/2 176/3/2
f 175/3/2 174/3/2 176/3/2
f 177/5/2 178/5/2 180/5/2
f 178/4/2 179/4/2 181/4/2
f 180/5/2 178/5/2 181/5/2
f 180/4/2 181/4/2 182/4/2
f 181/4/2 179/4/2 183/4/2
f 182/4/2 181/4/2 183/4/2
f 182/7/2 183/7/2 184/7/2
f 184/7/2 183/7/2 185/7/2
f 186/5/2 187/5/2 188/5/2
f 188/5/2 187/5/2 189/5/2
f 192/5/3 191/5/3 190/5/3
f 193/5/3 191/5/3 192/5/3
f 194/5/3 192/5/3 190/5/3
f 195/5/3 191/5/3 193/5/3
f 196/5/3 194/5/3 190/5/3
f 196/5/3 195/5/3 194/5/3
f 197/5/3 191/5/3 195/5/3
f 197/5/3 195/5/3 196/5/3
f 200/5/3 199/5/3 198/5/3
f 201/5/3 199/5/3 200/5/3
f 202/5/3 200/5/3 198/5/3
f 203/5/3 200/5/3 202/5/3
f 209/5/3 205/5/3 204/5/3
f 210/5/3 205/5/3 209/5/3
f 211/7/3 207/7/3 206/7/3
f 212/5/3 208/5/3 207/5/3
f 212/7/3 207/7/3 211/7/3
f 213/5/3 208/5/3 212/5/3
f 214/5/3 209/5/3 204/5/3
f 215/5/3 209/5/3 214/5/3
f 218/3/3 217/3/3 216/3/3
f 219/3/3 217/3/3 218/3/3
f 224/2/3 221/2/3 220/2/3
f 225/2/3 221/2/3 224/2/3
f 226/2/3 221/2/3 225/2/3
f 227/2/3 224/2/3 220/2/3
f 230/2/3 228/2/3 227/2/3
f 230/2/3 229/2/3 228/2/3
f 231/2/3 229/2/3 230/2/3
f 232/2/3 227/2/3 220/2/3
f 232/2/3 230/2/3 227/2/3
f 233/2/3 230/2/3 232/2/3
f 234/2/3 232/2/3 220/2/3
f 235/2/3 232/2/3 234/2/3
f 236/2/3 234/2/3 220/2/3
f 237/2/3 234/2/3 236/2/3
f 238/2/3 236/2/3 220/2/3
f 239/2/3 236/2/3 238/2/3
f 243/4/3 241/4/3 240/4/3
f 244/7/3 242/7/3 241/7/3
f 244/4/3 241/4/3 243/4/3
f 245/4/3 243/4/3 240/4/3
f 245/5/3 244/5/3 243/5/3
f 246/7/3 242/7/3 244/7/3
f 246/5/3 244/5/3 245/5/3
f 247/4/3 245/4/3 240/4/3
f 247/4/3 246/4/3 245/4/3
f 248/4/3 246/4/3 247/4/3
f 249/5/3 248/5/3 247/5/3
f 250/4/3 246/4/3 248/4/3
f 250/5/3 248/5/3 249/5/3
f 251/7/3 242/7/3 246/7/3
f 254/4/3 250/4/3 249/4/3
f 255/4/3 246/4/3 250/4/3
f 255/4/3 250/4/3 254/4/3
f 256/6/3 253/6/3 252/6/3
f 258/4/3 223/4/3 222/4/3
f 259/4/3 223/4/3 258/4/3
f 260/5/3 255/5/3 254/5/3
f 261/4/3 246/4/3 255/4/3
f 261/5/3 255/5/3 260/5/3
f 262/7/3 251/7/3 246/7/3
f 262/1/3 252/1/3 251/1/3
f 263/6/3 256/6/3 252/6/3
f 263/1/3 252/1/3 262/1/3
f 264/3/3 257/3/3 256/3/3
f 264/6/3 256/6/3 263/6/3
f 265/3/3 257/3/3 264/3/3
f 268/4/3 261/4/3 260/4/3
f 269/4/3 246/4/3 261/4/3
f 269/4/3 261/4/3 268/4/3
f 269/7/3 262/7/3 246/7/3
f 270/5/3 269/5/3 268/5/3
f 271/7/3 262/7/3 269/7/3
f 271/5/3 269/5/3 270/5/3
f 272/4/3 271/4/3 270/4/3
f 273/4/3 271/4/3 272/4/3
f 274/5/3 273/5/3 272/5/3
f 275/4/3 271/4/3 273/4/3
f 275/5/3 273/5/3 274/5/3
f 276/7/3 262/7/3 271/7/3
f 276/4/3 271/4/3 275/4/3
f 277/7/3 262/7/3 276/7/3
f 278/4/3 267/4/3 266/4/3
f 279/4/3 267/4/3 278/4/3
f 282/7/3 281/7/3 280/7/3
f 283/7/3 281/7/3 282/7/3
f 287/5/3 285/5/3 284/5/3
f 288/7/3 286/7/3 285/7/3
f 288/5/3 285/5/3 287/5/3
f 289/7/3 286/7/3 288/7/3
f 292/5/3 291/5/3 290/5/3
f 293/5/3 291/5/3 292/5/3
f 294/5/3 292/5/3 290/5/3
f 295/5/3 292/5/3 294/5/3
f 298/7/3 297/7/3 296/7/3
f 299/7/3 297/7/3 298/7/3
f 302/5/3 301/5/3 300/5/3
f 303/5/3 301/5/3 302/5/3
f 304/5/4 305/5/4 306/5/4
f 306/5/4 305/5/4 307/5/4
f 304/5/4 306/5/4 308/5/4
f 308/5/4 306/5/4 309/5/4
f 310/5/4 311/5/4 312/5/4
f 312/5/4 311/5/4 313/5/4
f 310/5/4 312/5/4 314/5/4
f 314/5/4 312/5/4 315/5/4
f 316/3/4 317/3/4 318/3/4
f 318/3/4 317/3/4 319/3/4
f 322/4/4 323/4/4 326/4/4
f 323/5/4 324/5/4 326/5/4
f 324/7/4 325/7/4 327/7/4
f 326/5/4 324/5/4 327/5/4
f 322/4/4 326/4/4 328/4/4
f 326/4/4 327/4/4 328/4/4
f 328/4/4 327/4/4 329/4/4
f 328/5/4 329/5/4 330/5/4
f 329/4/4 327/4/4 331/4/4
f 330/5/4 329/5/4 331/5/4
f 330/4/4 331/4/4 332/4/4
f 327/7/4 325/7/4 333/7/4
f 332/4/4 331/4/4 333/4/4
f 331/4/4 327/4/4 333/4/4
f 333/7/4 325/7/4 334/7/4
f 332/5/4 333/5/4 337/5/4
f 333/7/4 334/7/4 338/7/4
f 337/5/4 333/5/4 338/5/4
f 320/4/4 321/4/4 339/4/4
f 339/4/4 321/4/4 340/4/4
f 337/4/4 338/4/4 341/4/4
f 338/7/4 334/7/4 342/7/4
f 341/4/4 338/4/4 342/4/4
f 334/1/4 335/1/4 343/1/4
f 342/7/4 334/7/4 343/7/4
f 335/6/4 336/6/4 344/6/4
f 343/1/4 335/1/4 344/1/4
f 344/6/4 336/6/4 345/6/4
f 320/4/4 339/4/4 346/4/4
f 337/4/4 341/4/4 348/4/4
f 341/5/4 342/5/4 348/5/4
f 342/7/4 343/7/4 349/7/4
f 348/5/4 342/5/4 349/5/4
f 337/4/4 348/4/4 350/4/4
f 348/4/4 349/4/4 350/4/4
f 350/4/4 349/4/4 351/4/4
f 350/5/4 351/5/4 352/5/4
f 351/4/4 349/4/4 353/4/4
f 352/5/4 351/5/4 353/5/4
f 352/4/4 353/4/4 354/4/4
f 349/7/4 343/7/4 355/7/4
f 354/4/4 353/4/4 355/4/4
f 353/4/4 349/4/4 355/4/4
f 355/7/4 343/7/4 356/7/4
f 346/4/4 347/4/4 357/4/4
f 320/4/4 346/4/4 357/4/4
f 357/4/4 347/4/4 358/4/4
f 359/7/4 360/7/4 361/7/4
f 361/7/4 360/7/4 362/7/4
f 363/3/4 364/3/4 365/3/4
f 365/3/4 364/3/4 366/3/4
f 367/5/4 368/5/4 370/5/4
f 368/7/4 369/7/4 371/7/4
f 370/5/4 368/5/4 371/5/4
f 371/7/4 369/7/4 372/7/4
f 373/5/4 374/5/4 375/5/4
f 375/5/4 374/5/4 376/5/4
f 373/5/4 375/5/4 377/5/4
f 377/5/4 375/5/4 378/5/4
f 379/7/4 380/7/4 381/7/4
f 381/7/4 380/7/4 382/7/4
f 383/2/4 384/2/4 385/2/4
f 385/2/4 384/2/4 386/2/4
f 386/2/4 384/2/4 387/2/4
f 383/2/4 385/2/4 388/2/4
f 388/2/4 389/2/4 391/2/4
f 389/2/4 390/2/4 391/2/4
f 391/2/4 390/2/4 392/2/4
f 383/2/4 388/2/4 393/2/4
f 388/2/4 391/2/4 393/2/4
f 393/2/4 391/2/4 394/2/4
f 383/2/4 393/2/4 395/2/4
f 395/2/4 393/2/4 396/2/4
f 383/2/4 395/2/4 397/2/4
f 397/2/4 395/2/4 398/2/4
f 383/2/4 397/2/4 399/2/4
f 399/2/4 397/2/4 400/2/4
f 401/7/4 402/7/4 404/7/4
f 402/5/4 403/5/4 405/5/4
f 404/7/4 402/7/4 405/7/4
f 405/5/4 403/5/4 406/5/4
f 407/5/4 408/5/4 409/5/4
f 409/5/4 408/5/4 410/5/4
f 413/5/5 412/5/5 411/5/5
f 414/5/5 412/5/5 413/5/5
f 424/4/5 416/4/5 415/4/5
f 425/5/5 417/5/5 416/5/5
f 425/4/5 416/4/5 424/4/5
f 426/4/5 418/4/5 417/4/5
f 426/5/5 417/5/5 425/5/5
f 427/5/5 419/5/5 418/5/5
f 427/4/5 418/4/5 426/4/5
f 428/4/5 420/4/5 419/4/5
f 428/5/5 419/5/5 427/5/5
f 429/5/5 421/5/5 420/5/5
f 429/4/5 420/4/5 428/4/5
f 430/4/5 422/4/5 421/4/5
f 430/5/5 421/5/5 429/5/5
f 431/5/5 423/5/5 422/5/5
f 431/4/5 422/4/5 430/4/5
f 432/5/5 423/5/5 431/5/5
f 433/4/5 424/4/5 415/4/5
f 434/5/5 425/5/5 424/5/5
f 434/4/5 424/4/5 433/4/5
f 435/4/5 426/4/5 425/4/5
f 435/5/5 425/5/5 434/5/5
f 436/5/5 427/5/5 426/5/5
f 436/4/5 426/4/5 435/4/5
f 437/4/5 430/4/5 429/4/5
f 437/5/5 427/5/5 436/5/5
f 437/4/5 428/4/5 427/4/5
f 437/4/5 429/4/5 428/4/5
f 438/5/5 431/5/5 430/5/5
f 438/4/5 430/4/5 437/4/5
f 439/4/5 432/4/5 431/4/5
f 439/5/5 431/5/5 438/5/5
f 440/4/5 432/4/5 439/4/5
f 443/7/5 442/7/5 441/7/5
f 444/7/5 442/7/5 443/7/5
f 447/7/5 446/7/5 445/7/5
f 448/7/5 446/7/5 447/7/5
f 451/7/5 450/7/5 449/7/5
f 452/7/5 450/7/5 451/7/5
f 455/7/5 454/7/5 453/7/5
f 456/7/5 454/7/5 455/7/5
f 459/7/5 458/7/5 457/7/5
f 460/7/5 458/7/5 459/7/5
f 463/5/5 462/5/5 461/5/5
f 464/5/5 462/5/5 463/5/5
f 467/5/5 466/5/5 465/5/5
f 468/5/5 466/5/5 467/5/5
f 471/5/5 470/5/5 469/5/5
f 472/5/5 470/5/5 471/5/5
f 475/3/5 474/3/5 473/3/5
f 476/3/5 474/3/5 475/3/5
f 481/4/5 478/4/5 477/4/5
f 482/4/5 480/4/5 479/4/5
f 483/4/5 481/4/5 477/4/5
f 483/4/5 482/4/5 481/4/5
f 484/4/5 480/4/5 482/4/5
f 484/4/5 482/4/5 483/4/5
f 487/3/5 486/3/5 485/3/5
f 488/3/5 486/3/5 487/3/5
f 491/5/5 490/5/5 489/5/5
f 492/5/5 490/5/5 491/5/5
f 493/5/6 494/5/6 495/5/6
f 495/5/6 494/5/6 496/5/6
f 496/5/6 494/5/6 498/5/6
f 497/5/6 498/5/6 499/5/6
f 498/5/6 494/5/6 500/5/6
f 499/5/6 498/5/6 500/5/6
f 501/2/6 502/2/6 503/2/6
f 503/2/6 502/2/6 504/2/6
f 505/2/6 506/2/6 507/2/6
f 507/2/6 506/2/6 508/2/6
f 509/2/6 510/2/6 511/2/6
f 511/2/6 510/2/6 512/2/6
f 513/2/6 514/2/6 515/2/6
f 515/2/6 514/2/6 516/2/6
f 517/2/6 518/2/6 521/2/6
f 521/2/6 518/2/6 522/2/6
f 519/2/6 520/2/6 523/2/6
f 523/2/6 520/2/6 524/2/6
f 527/7/6 528/7/6 531/7/6
f 531/7/6 528/7/6 532/7/6
f 529/7/6 530/7/6 533/7/6
f 533/7/6 530/7/6 534/7/6
f 525/5/6 526/5/6 535/5/6
f 535/5/6 526/5/6 536/5/6
f 537/5/6 538/5/6 539/5/6
f 539/5/6 538/5/6 540/5/6
f 541/7/6 542/7/6 543/7/6
f 543/7/6 542/7/6 544/7/6
f 545/7/6 546/7/6 547/7/6
f 547/7/6 546/7/6 548/7/6
f 549/5/6 550/5/6 551/5/6
f 551/5/6 550/5/6 552/5/6
f 553/5/6 554/5/6 555/5/6
f 555/5/6 554/5/6 556/5/6
f 557/5/6 558/5/6 559/5/6
f 559/5/6 558/5/6 560/5/6
f 561/5/6 562/5/6 563/5/6
f 563/5/6 562/5/6 564/5/6
f 565/5/6 566/5/6 567/5/6
f 567/5/6 566/5/6 568/5/6
f 569/5/6 570/5/6 571/5/6
f 571/5/6 570/5/6 572/5/6
f 573/6/6 574/6/6 575/6/6
f 573/6/6 575/6/6 577/6/6
f 575/6/6 576/6/6 577/6/6
f 577/6/6 576/6/6 578/6/6
f 579/4/6 580/4/6 583/4/6
f 583/4/6 580/4/6 584/4/6
f 581/4/6 582/4/6 585/4/6
f 585/4/6 582/4/6 586/4/6
f 587/3/6 588/3/6 589/3/6
f 589/3/6 588/3/6 590/3/6
f 591/5/6 592/5/6 593/5/6
f 593/5/6 592/5/6 594/5/6
