# MagicaVoxel @ Ephtracy

# material
mtllib PC_display.mtl
usemtl palette

# normals
vn -1 0 0
vn 1 0 0
vn 0 0 1
vn 0 0 -1
vn 0 -1 0
vn 0 1 0

# texcoords
vt 0.0605469 0.5
vt 0.587891 0.5
vt 0.958984 0.5
vt 0.974609 0.5
vt 0.994141 0.5

# verts
v -33 0 1.5
v -33 0 -1.5
v -33 40 1.5
v -33 40 -1.5
v 33 0 1.5
v 33 0 -1.5
v 33 40 1.5
v 33 40 -1.5
v -33 0 1.5
v -33 40 1.5
v -32 1 1.5
v -32 39 1.5
v -30 3 1.5
v -30 25 1.5
v -30 35 1.5
v -30 37 1.5
v -28 30 1.5
v -28 32 1.5
v -27 28 1.5
v -27 30 1.5
v -27 32 1.5
v -26 26 1.5
v -26 28 1.5
v -26 30 1.5
v -25 26 1.5
v -25 28 1.5
v -25 31 1.5
v -24 26 1.5
v -24 28 1.5
v -24 31 1.5
v -23 26 1.5
v -23 28 1.5
v -23 30 1.5
v -22 28 1.5
v -22 30 1.5
v -22 32 1.5
v -21 30 1.5
v -21 32 1.5
v -20 27 1.5
v -20 30 1.5
v -19 26 1.5
v -19 27 1.5
v -19 30 1.5
v -19 31 1.5
v -16 26 1.5
v -16 27 1.5
v -16 30 1.5
v -16 31 1.5
v -15 27 1.5
v -15 30 1.5
v -13 26 1.5
v -13 31 1.5
v -12 26 1.5
v -12 27 1.5
v -12 29 1.5
v -12 31 1.5
v -11 27 1.5
v -11 28 1.5
v -10 28 1.5
v -10 29 1.5
v -10 30 1.5
v -8 29 1.5
v -8 30 1.5
v -7 26 1.5
v -7 32 1.5
v -6 26 1.5
v -6 27 1.5
v -6 28 1.5
v -6 32 1.5
v -5 27 1.5
v -5 28 1.5
v -5 30 1.5
v -4 27 1.5
v -4 28 1.5
v -4 30 1.5
v -4 32 1.5
v -3 26 1.5
v -3 27 1.5
v -3 28 1.5
v -3 30 1.5
v -3 32 1.5
v -2 26 1.5
v -2 27 1.5
v 0 26 1.5
v 0 30 1.5
v 0 31 1.5
v 0 32 1.5
v 1 26 1.5
v 1 30 1.5
v 1 31 1.5
v 1 32 1.5
v 3 26 1.5
v 3 31 1.5
v 4 26 1.5
v 4 29 1.5
v 4 30 1.5
v 4 31 1.5
v 6 26 1.5
v 6 29 1.5
v 6 30 1.5
v 7 26 1.5
v 7 29 1.5
v 9 25 1.5
v 9 27 1.5
v 9 28 1.5
v 9 31 1.5
v 10 26 1.5
v 10 27 1.5
v 10 29 1.5
v 10 30 1.5
v 11 26 1.5
v 11 28 1.5
v 11 29 1.5
v 11 30 1.5
v 11 31 1.5
v 11 32 1.5
v 12 25 1.5
v 12 32 1.5
v 13 5 1.5
v 13 14 1.5
v 15 26 1.5
v 15 27 1.5
v 15 28 1.5
v 15 33 1.5
v 16 26 1.5
v 16 27 1.5
v 16 28 1.5
v 16 33 1.5
v 28 5 1.5
v 28 14 1.5
v 30 3 1.5
v 30 25 1.5
v 30 35 1.5
v 30 37 1.5
v 32 1 1.5
v 32 39 1.5
v 33 0 1.5
v 33 40 1.5
v -33 0 -1.5
v -33 40 -1.5
v 33 0 -1.5
v 33 40 -1.5
v -33 0 1.5
v 33 0 1.5
v -33 0 -1.5
v 33 0 -1.5
v -33 40 1.5
v 33 40 1.5
v -33 40 -1.5
v 33 40 -1.5

# faces
f 3/4/1 2/4/1 1/4/1
f 4/4/1 2/4/1 3/4/1
f 5/4/2 6/4/2 7/4/2
f 7/4/2 6/4/2 8/4/2
f 11/4/3 10/4/3 9/4/3
f 12/4/3 10/4/3 11/4/3
f 13/5/3 12/5/3 11/5/3
f 14/5/3 12/5/3 13/5/3
f 15/5/3 12/5/3 14/5/3
f 16/5/3 12/5/3 15/5/3
f 17/1/3 15/1/3 14/1/3
f 18/1/3 15/1/3 17/1/3
f 19/1/3 17/1/3 14/1/3
f 20/3/3 18/3/3 17/3/3
f 20/1/3 17/1/3 19/1/3
f 21/1/3 15/1/3 18/1/3
f 21/3/3 18/3/3 20/3/3
f 22/1/3 19/1/3 14/1/3
f 23/3/3 20/3/3 19/3/3
f 23/1/3 19/1/3 22/1/3
f 24/1/3 21/1/3 20/1/3
f 24/3/3 20/3/3 23/3/3
f 25/1/3 22/1/3 14/1/3
f 25/3/3 23/3/3 22/3/3
f 26/1/3 24/1/3 23/1/3
f 26/3/3 23/3/3 25/3/3
f 27/1/3 21/1/3 24/1/3
f 27/1/3 24/1/3 26/1/3
f 28/1/3 26/1/3 25/1/3
f 28/1/3 25/1/3 14/1/3
f 29/3/3 27/3/3 26/3/3
f 29/1/3 26/1/3 28/1/3
f 30/1/3 21/1/3 27/1/3
f 30/3/3 27/3/3 29/3/3
f 31/3/3 29/3/3 28/3/3
f 31/1/3 28/1/3 14/1/3
f 32/1/3 30/1/3 29/1/3
f 32/3/3 29/3/3 31/3/3
f 33/1/3 30/1/3 32/1/3
f 34/1/3 32/1/3 31/1/3
f 34/3/3 33/3/3 32/3/3
f 35/1/3 30/1/3 33/1/3
f 35/3/3 33/3/3 34/3/3
f 36/1/3 21/1/3 30/1/3
f 36/1/3 30/1/3 35/1/3
f 36/1/3 15/1/3 21/1/3
f 37/1/3 35/1/3 34/1/3
f 37/3/3 36/3/3 35/3/3
f 38/1/3 15/1/3 36/1/3
f 38/3/3 36/3/3 37/3/3
f 39/1/3 37/1/3 34/1/3
f 39/1/3 34/1/3 31/1/3
f 39/1/3 38/1/3 37/1/3
f 40/1/3 38/1/3 39/1/3
f 41/1/3 31/1/3 14/1/3
f 41/1/3 39/1/3 31/1/3
f 42/3/3 40/3/3 39/3/3
f 42/1/3 39/1/3 41/1/3
f 43/1/3 38/1/3 40/1/3
f 43/3/3 40/3/3 42/3/3
f 44/1/3 38/1/3 43/1/3
f 45/3/3 42/3/3 41/3/3
f 45/1/3 41/1/3 14/1/3
f 46/1/3 43/1/3 42/1/3
f 46/3/3 42/3/3 45/3/3
f 47/3/3 44/3/3 43/3/3
f 47/1/3 43/1/3 46/1/3
f 48/1/3 38/1/3 44/1/3
f 48/3/3 44/3/3 47/3/3
f 49/3/3 47/3/3 46/3/3
f 49/1/3 46/1/3 45/1/3
f 50/1/3 48/1/3 47/1/3
f 50/3/3 47/3/3 49/3/3
f 51/1/3 49/1/3 45/1/3
f 51/1/3 45/1/3 14/1/3
f 51/1/3 50/1/3 49/1/3
f 52/1/3 38/1/3 48/1/3
f 52/1/3 50/1/3 51/1/3
f 52/1/3 48/1/3 50/1/3
f 53/1/3 51/1/3 14/1/3
f 53/3/3 52/3/3 51/3/3
f 54/3/3 52/3/3 53/3/3
f 55/3/3 52/3/3 54/3/3
f 56/1/3 38/1/3 52/1/3
f 56/3/3 52/3/3 55/3/3
f 57/3/3 55/3/3 54/3/3
f 57/1/3 54/1/3 53/1/3
f 58/3/3 55/3/3 57/3/3
f 59/1/3 58/1/3 57/1/3
f 59/3/3 55/3/3 58/3/3
f 60/1/3 56/1/3 55/1/3
f 60/3/3 55/3/3 59/3/3
f 61/1/3 56/1/3 60/1/3
f 62/1/3 60/1/3 59/1/3
f 62/3/3 61/3/3 60/3/3
f 63/1/3 56/1/3 61/1/3
f 63/3/3 61/3/3 62/3/3
f 64/1/3 53/1/3 14/1/3
f 64/1/3 59/1/3 57/1/3
f 64/1/3 63/1/3 62/1/3
f 64/1/3 62/1/3 59/1/3
f 64/1/3 57/1/3 53/1/3
f 65/1/3 15/1/3 38/1/3
f 65/1/3 63/1/3 64/1/3
f 65/1/3 38/1/3 56/1/3
f 65/1/3 56/1/3 63/1/3
f 66/1/3 64/1/3 14/1/3
f 66/3/3 65/3/3 64/3/3
f 67/3/3 65/3/3 66/3/3
f 68/3/3 65/3/3 67/3/3
f 69/1/3 15/1/3 65/1/3
f 69/3/3 65/3/3 68/3/3
f 70/3/3 68/3/3 67/3/3
f 70/1/3 67/1/3 66/1/3
f 71/1/3 69/1/3 68/1/3
f 71/3/3 68/3/3 70/3/3
f 72/1/3 69/1/3 71/1/3
f 73/1/3 70/1/3 66/1/3
f 73/1/3 71/1/3 70/1/3
f 74/3/3 72/3/3 71/3/3
f 74/1/3 71/1/3 73/1/3
f 75/1/3 69/1/3 72/1/3
f 75/3/3 72/3/3 74/3/3
f 76/1/3 15/1/3 69/1/3
f 76/1/3 69/1/3 75/1/3
f 77/1/3 66/1/3 14/1/3
f 77/1/3 73/1/3 66/1/3
f 78/3/3 74/3/3 73/3/3
f 78/1/3 73/1/3 77/1/3
f 79/1/3 75/1/3 74/1/3
f 79/3/3 74/3/3 78/3/3
f 80/3/3 76/3/3 75/3/3
f 80/1/3 75/1/3 79/1/3
f 81/1/3 15/1/3 76/1/3
f 81/3/3 76/3/3 80/3/3
f 82/3/3 78/3/3 77/3/3
f 82/1/3 77/1/3 14/1/3
f 83/1/3 80/1/3 79/1/3
f 83/3/3 78/3/3 82/3/3
f 83/1/3 81/1/3 80/1/3
f 83/1/3 79/1/3 78/1/3
f 84/1/3 82/1/3 14/1/3
f 84/1/3 83/1/3 82/1/3
f 85/1/3 81/1/3 83/1/3
f 85/1/3 83/1/3 84/1/3
f 86/1/3 81/1/3 85/1/3
f 87/1/3 15/1/3 81/1/3
f 87/1/3 81/1/3 86/1/3
f 88/1/3 84/1/3 14/1/3
f 88/3/3 85/3/3 84/3/3
f 89/1/3 86/1/3 85/1/3
f 89/3/3 85/3/3 88/3/3
f 90/3/3 87/3/3 86/3/3
f 90/1/3 86/1/3 89/1/3
f 91/1/3 15/1/3 87/1/3
f 91/3/3 87/3/3 90/3/3
f 92/1/3 88/1/3 14/1/3
f 92/1/3 90/1/3 89/1/3
f 92/1/3 91/1/3 90/1/3
f 92/1/3 89/1/3 88/1/3
f 93/1/3 91/1/3 92/1/3
f 94/1/3 92/1/3 14/1/3
f 94/3/3 93/3/3 92/3/3
f 95/3/3 93/3/3 94/3/3
f 96/3/3 93/3/3 95/3/3
f 97/1/3 91/1/3 93/1/3
f 97/3/3 93/3/3 96/3/3
f 98/1/3 94/1/3 14/1/3
f 98/1/3 95/1/3 94/1/3
f 99/3/3 96/3/3 95/3/3
f 99/1/3 95/1/3 98/1/3
f 100/1/3 97/1/3 96/1/3
f 100/3/3 96/3/3 99/3/3
f 101/1/3 98/1/3 14/1/3
f 101/3/3 99/3/3 98/3/3
f 102/1/3 100/1/3 99/1/3
f 102/3/3 99/3/3 101/3/3
f 103/2/3 14/2/3 13/2/3
f 103/1/3 101/1/3 14/1/3
f 103/1/3 102/1/3 101/1/3
f 104/1/3 102/1/3 103/1/3
f 105/1/3 102/1/3 104/1/3
f 106/1/3 100/1/3 102/1/3
f 106/1/3 102/1/3 105/1/3
f 106/1/3 97/1/3 100/1/3
f 106/1/3 91/1/3 97/1/3
f 107/3/3 104/3/3 103/3/3
f 108/1/3 105/1/3 104/1/3
f 108/3/3 104/3/3 107/3/3
f 109/3/3 106/3/3 105/3/3
f 110/3/3 106/3/3 109/3/3
f 111/3/3 107/3/3 103/3/3
f 111/1/3 108/1/3 107/1/3
f 112/1/3 105/1/3 108/1/3
f 112/1/3 108/1/3 111/1/3
f 112/3/3 109/3/3 105/3/3
f 113/1/3 110/1/3 109/1/3
f 113/3/3 109/3/3 112/3/3
f 114/3/3 106/3/3 110/3/3
f 114/1/3 110/1/3 113/1/3
f 115/1/3 91/1/3 106/1/3
f 115/3/3 106/3/3 114/3/3
f 116/1/3 15/1/3 91/1/3
f 116/1/3 91/1/3 115/1/3
f 117/3/3 113/3/3 112/3/3
f 117/3/3 115/3/3 114/3/3
f 117/3/3 116/3/3 115/3/3
f 117/3/3 112/3/3 111/3/3
f 117/3/3 111/3/3 103/3/3
f 117/2/3 103/2/3 13/2/3
f 117/3/3 114/3/3 113/3/3
f 118/1/3 15/1/3 116/1/3
f 118/3/3 116/3/3 117/3/3
f 119/2/3 117/2/3 13/2/3
f 120/2/3 117/2/3 119/2/3
f 121/1/3 118/1/3 117/1/3
f 122/1/3 118/1/3 121/1/3
f 123/1/3 118/1/3 122/1/3
f 124/1/3 15/1/3 118/1/3
f 124/1/3 118/1/3 123/1/3
f 125/1/3 121/1/3 117/1/3
f 125/3/3 122/3/3 121/3/3
f 126/1/3 123/1/3 122/1/3
f 126/3/3 122/3/3 125/3/3
f 127/3/3 124/3/3 123/3/3
f 127/1/3 123/1/3 126/1/3
f 128/1/3 15/1/3 124/1/3
f 128/3/3 124/3/3 127/3/3
f 129/2/3 119/2/3 13/2/3
f 129/1/3 120/1/3 119/1/3
f 130/2/3 117/2/3 120/2/3
f 130/1/3 120/1/3 129/1/3
f 131/5/3 13/5/3 11/5/3
f 131/2/3 129/2/3 13/2/3
f 131/2/3 130/2/3 129/2/3
f 132/2/3 117/2/3 130/2/3
f 132/2/3 130/2/3 131/2/3
f 132/1/3 125/1/3 117/1/3
f 132/1/3 127/1/3 126/1/3
f 132/1/3 128/1/3 127/1/3
f 132/1/3 126/1/3 125/1/3
f 133/1/3 15/1/3 128/1/3
f 133/1/3 128/1/3 132/1/3
f 133/2/3 16/2/3 15/2/3
f 134/5/3 12/5/3 16/5/3
f 134/2/3 16/2/3 133/2/3
f 135/4/3 11/4/3 9/4/3
f 135/5/3 131/5/3 11/5/3
f 135/5/3 134/5/3 133/5/3
f 135/5/3 133/5/3 132/5/3
f 135/5/3 132/5/3 131/5/3
f 136/5/3 12/5/3 134/5/3
f 136/5/3 134/5/3 135/5/3
f 136/4/3 10/4/3 12/4/3
f 137/4/3 135/4/3 9/4/3
f 137/4/3 136/4/3 135/4/3
f 138/4/3 10/4/3 136/4/3
f 138/4/3 136/4/3 137/4/3
f 139/4/4 140/4/4 141/4/4
f 141/4/4 140/4/4 142/4/4
f 145/4/5 144/4/5 143/4/5
f 146/4/5 144/4/5 145/4/5
f 147/4/6 148/4/6 149/4/6
f 149/4/6 148/4/6 150/4/6
